<svg width="221" height="299" viewBox="0 0 221 299" fill="none" xmlns="http://www.w3.org/2000/svg">
<path d="M63.7919 246.369L15.8223 249.249C12.2453 249.463 9.50916 246.11 10.4368 242.648L43.8067 118.11C44.3916 115.927 46.3076 114.364 48.5632 114.228L100.027 111.139M63.7919 246.369L109.974 276.861M63.7919 246.369L100.027 111.139M100.027 111.139L146.208 141.631M109.974 276.861L161.436 273.772C163.692 273.636 165.609 272.073 166.194 269.889L199.563 145.351C200.491 141.89 197.755 138.537 194.178 138.752L146.208 141.631M109.974 276.861L146.208 141.631" stroke="white" stroke-width="10" stroke-linecap="round" stroke-linejoin="round"/>
<path d="M199.666 53.3332C199.666 76.8974 157 117.333 157 117.333C157 117.333 114.333 76.8974 114.333 53.3332C114.333 29.769 133.436 10.6665 157 10.6665C180.564 10.6665 199.666 29.769 199.666 53.3332Z" stroke="white" stroke-width="10"/>
<path d="M157 58.6667C159.946 58.6667 162.334 56.2789 162.334 53.3333C162.334 50.3878 159.946 48 157 48C154.055 48 151.667 50.3878 151.667 53.3333C151.667 56.2789 154.055 58.6667 157 58.6667Z" fill="black" stroke="white" stroke-width="10" stroke-linecap="round" stroke-linejoin="round"/>
</svg>
